<?xml version="1.0" encoding="UTF-8" standalone="no"?>
<!DOCTYPE svg PUBLIC "-//W3C//DTD SVG 1.1//EN" "http://www.w3.org/Graphics/SVG/1.1/DTD/svg11.dtd">
<svg width="100%" height="100%" viewBox="0 0 58 58" version="1.1" xmlns="http://www.w3.org/2000/svg" xmlns:xlink="http://www.w3.org/1999/xlink" xml:space="preserve" xmlns:serif="http://www.serif.com/" style="fill-rule:evenodd;clip-rule:evenodd;stroke-linejoin:round;stroke-miterlimit:2;">
    <path d="M29,0C45.006,0 58,12.994 58,29C58,45.006 45.006,58 29,58C12.994,58 -0,45.006 -0,29C-0,12.994 12.994,0 29,0ZM13.015,46.091L44.985,46.091L44.985,27.894C44.985,19.072 37.822,11.909 29,11.909C20.178,11.909 13.015,19.072 13.015,27.894L13.015,46.091ZM37.991,27.259C37.991,22.265 33.937,18.21 28.943,18.21C23.949,18.21 19.894,22.265 19.894,27.259L19.894,45.967L37.991,45.967L37.991,27.259Z" style="fill:white;"/>
</svg>
