<svg width="270" height="180" viewBox="0 0 270 180" fill="none" xmlns="http://www.w3.org/2000/svg">
<path d="M0 8C0 3.58172 3.58172 0 8 0H262C266.418 0 270 3.58172 270 8V180H0V8Z" fill="#14565B"/>
<rect x="62" y="72" width="146" height="36" rx="7" fill="white" fill-opacity="0.2" stroke="#14565B" stroke-width="2"/>
<path d="M87.5919 96.216C83.7579 96.216 81.2739 93.552 81.2739 89.43C81.2739 85.344 83.8479 82.626 87.6999 82.626C90.8139 82.626 93.1359 84.444 93.5859 87.27H91.1559C90.7059 85.74 89.3919 84.84 87.6459 84.84C85.2159 84.84 83.6859 86.604 83.6859 89.412C83.6859 92.202 85.2339 94.002 87.6459 94.002C89.4279 94.002 90.7959 93.066 91.2279 91.608H93.6219C93.1179 94.38 90.7059 96.216 87.5919 96.216ZM94.6621 91.536C94.6621 88.764 96.6601 86.856 99.4141 86.856C102.168 86.856 104.166 88.764 104.166 91.536C104.166 94.308 102.168 96.216 99.4141 96.216C96.6601 96.216 94.6621 94.308 94.6621 91.536ZM96.8581 91.536C96.8581 93.156 97.9021 94.254 99.4141 94.254C100.926 94.254 101.97 93.156 101.97 91.536C101.97 89.916 100.926 88.818 99.4141 88.818C97.9021 88.818 96.8581 89.916 96.8581 91.536ZM107.923 96H105.727V87.108H107.743L107.923 88.152C108.373 87.414 109.273 86.838 110.551 86.838C111.901 86.838 112.837 87.504 113.305 88.53C113.755 87.504 114.799 86.838 116.149 86.838C118.309 86.838 119.497 88.134 119.497 90.186V96H117.319V90.762C117.319 89.484 116.635 88.818 115.591 88.818C114.529 88.818 113.719 89.502 113.719 90.96V96H111.523V90.744C111.523 89.502 110.857 88.836 109.813 88.836C108.769 88.836 107.923 89.52 107.923 90.96V96ZM122.571 85.326C121.815 85.326 121.221 84.732 121.221 83.994C121.221 83.256 121.815 82.68 122.571 82.68C123.291 82.68 123.885 83.256 123.885 83.994C123.885 84.732 123.291 85.326 122.571 85.326ZM121.473 96V87.108H123.669V96H121.473ZM127.953 96H125.757V87.108H127.791L127.971 88.26C128.529 87.36 129.609 86.838 130.815 86.838C133.047 86.838 134.199 88.224 134.199 90.528V96H132.003V91.05C132.003 89.556 131.265 88.836 130.131 88.836C128.781 88.836 127.953 89.772 127.953 91.212V96ZM135.673 91.356C135.673 88.764 137.365 86.82 139.903 86.82C141.235 86.82 142.279 87.378 142.801 88.332L142.927 87.108H144.961V95.55C144.961 98.52 143.179 100.374 140.299 100.374C137.743 100.374 135.997 98.916 135.727 96.54H137.923C138.067 97.692 138.949 98.376 140.299 98.376C141.811 98.376 142.783 97.422 142.783 95.946V94.47C142.225 95.298 141.127 95.82 139.849 95.82C137.329 95.82 135.673 93.93 135.673 91.356ZM137.887 91.302C137.887 92.796 138.841 93.912 140.281 93.912C141.793 93.912 142.729 92.85 142.729 91.302C142.729 89.79 141.811 88.746 140.281 88.746C138.823 88.746 137.887 89.844 137.887 91.302ZM151.041 93.3H153.129C153.147 94.074 153.723 94.56 154.731 94.56C155.757 94.56 156.315 94.146 156.315 93.498C156.315 93.048 156.081 92.724 155.289 92.544L153.687 92.166C152.085 91.806 151.311 91.05 151.311 89.628C151.311 87.882 152.787 86.838 154.839 86.838C156.837 86.838 158.187 87.99 158.205 89.718H156.117C156.099 88.962 155.595 88.476 154.749 88.476C153.885 88.476 153.381 88.872 153.381 89.538C153.381 90.042 153.777 90.366 154.533 90.546L156.135 90.924C157.629 91.266 158.385 91.95 158.385 93.318C158.385 95.118 156.855 96.234 154.659 96.234C152.445 96.234 151.041 95.046 151.041 93.3ZM159.355 91.536C159.355 88.764 161.353 86.856 164.107 86.856C166.861 86.856 168.859 88.764 168.859 91.536C168.859 94.308 166.861 96.216 164.107 96.216C161.353 96.216 159.355 94.308 159.355 91.536ZM161.551 91.536C161.551 93.156 162.595 94.254 164.107 94.254C165.619 94.254 166.663 93.156 166.663 91.536C166.663 89.916 165.619 88.818 164.107 88.818C162.595 88.818 161.551 89.916 161.551 91.536ZM169.898 91.536C169.898 88.764 171.896 86.856 174.65 86.856C177.404 86.856 179.402 88.764 179.402 91.536C179.402 94.308 177.404 96.216 174.65 96.216C171.896 96.216 169.898 94.308 169.898 91.536ZM172.094 91.536C172.094 93.156 173.138 94.254 174.65 94.254C176.162 94.254 177.206 93.156 177.206 91.536C177.206 89.916 176.162 88.818 174.65 88.818C173.138 88.818 172.094 89.916 172.094 91.536ZM183.159 96H180.963V87.108H182.997L183.177 88.26C183.735 87.36 184.815 86.838 186.021 86.838C188.253 86.838 189.405 88.224 189.405 90.528V96H187.209V91.05C187.209 89.556 186.471 88.836 185.337 88.836C183.987 88.836 183.159 89.772 183.159 91.212V96Z" fill="white"/>
</svg>
