<svg width="27" height="32" viewBox="0 0 27 32" fill="none" xmlns="http://www.w3.org/2000/svg">
<path d="M25.2083 14.2688C25.2083 20.4649 18.9622 26.2427 14.9242 29.4507C13.9672 30.211 12.6161 30.211 11.6591 29.4507C7.62112 26.2427 1.375 20.4649 1.375 14.2688C1.375 7.14774 6.20401 1.375 13.2917 1.375C20.3793 1.375 25.2083 7.14774 25.2083 14.2688Z" stroke="#0C1E33" stroke-width="2.75"/>
<path d="M17.8698 13.2943C17.8698 15.8256 15.8178 17.8776 13.2865 17.8776C10.7552 17.8776 8.70312 15.8256 8.70312 13.2943C8.70312 10.763 10.7552 8.71094 13.2865 8.71094C15.8178 8.71094 17.8698 10.763 17.8698 13.2943Z" stroke="#0C1E33" stroke-width="2.75"/>
</svg>
