<svg width="50" height="50" viewBox="0 0 50 50" fill="none" xmlns="http://www.w3.org/2000/svg">
<g clip-path="url(#clip0_715_314)">
<path d="M48.9584 45.8333L46.875 41.8042V32.2917C46.9625 28.5875 42.5396 25.2854 38.5417 21.875" stroke="white" stroke-width="2.08333" stroke-linecap="round" stroke-linejoin="round"/>
<path d="M41.7042 36.4565L36.3896 31.0253C36.1526 30.7786 35.8692 30.5812 35.5556 30.4446C35.242 30.3079 34.9045 30.2346 34.5625 30.2289C34.2205 30.2232 33.8807 30.2852 33.5627 30.4113C33.2448 30.5375 32.9549 30.7253 32.7098 30.9639C32.4647 31.2025 32.2693 31.4873 32.1347 31.8018C32.0001 32.1162 31.929 32.4542 31.9256 32.7963C31.9222 33.1383 31.9864 33.4777 32.1147 33.7948C32.243 34.1119 32.4327 34.4005 32.6729 34.644L38.5396 40.6232V43.7482C38.8586 45.6119 39.5687 47.3869 40.6229 48.9565" stroke="white" stroke-width="2.08333" stroke-linecap="round" stroke-linejoin="round"/>
<path d="M1.04169 4.1665L3.12502 8.19567V17.7082C3.03752 21.4123 7.46044 24.7144 11.4584 28.1248" stroke="white" stroke-width="2.08333" stroke-linecap="round" stroke-linejoin="round"/>
<path d="M8.29266 13.5415L13.6072 18.9728C13.8442 19.2194 14.1277 19.4168 14.4413 19.5535C14.7548 19.6901 15.0924 19.7634 15.4344 19.7691C15.7764 19.7749 16.1162 19.7128 16.4341 19.5867C16.7521 19.4606 17.042 19.2728 17.287 19.0341C17.5321 18.7955 17.7276 18.5107 17.8622 18.1963C17.9968 17.8818 18.0678 17.5438 18.0713 17.2017C18.0747 16.8597 18.0104 16.5203 17.8822 16.2032C17.7539 15.8861 17.5642 15.5975 17.3239 15.354L11.4572 9.37484V6.24984C11.1382 4.38614 10.4282 2.6111 9.37391 1.0415" stroke="white" stroke-width="2.08333" stroke-linecap="round" stroke-linejoin="round"/>
<path d="M11.4583 16.7764V47.918C11.4583 48.1943 11.5681 48.4593 11.7634 48.6546C11.9588 48.85 12.2237 48.9597 12.5 48.9597H35.4166" stroke="white" stroke-width="2.08333" stroke-linecap="round" stroke-linejoin="round"/>
<path d="M22.9167 5.2085H15.625" stroke="white" stroke-width="2.08333" stroke-linecap="round" stroke-linejoin="round"/>
<path d="M38.5417 33.2252V20.8335" stroke="white" stroke-width="2.08333" stroke-linecap="round" stroke-linejoin="round"/>
<path d="M27.0833 32.2915H15.625" stroke="white" stroke-width="2.08333" stroke-linecap="round" stroke-linejoin="round"/>
<path d="M34.375 26.0415H15.625" stroke="white" stroke-width="2.08333" stroke-linecap="round" stroke-linejoin="round"/>
<path d="M25 38.5415H15.625" stroke="white" stroke-width="2.08333" stroke-linecap="round" stroke-linejoin="round"/>
<path d="M42.7084 9.37484C42.7084 11.023 42.2196 12.6342 41.3039 14.0046C40.3883 15.375 39.0868 16.4431 37.5641 17.0738C36.0413 17.7046 34.3658 17.8696 32.7493 17.548C31.1328 17.2265 29.6479 16.4328 28.4825 15.2674C27.317 14.102 26.5234 12.6171 26.2018 11.0006C25.8803 9.38408 26.0453 7.70853 26.676 6.18581C27.3068 4.66309 28.3749 3.3616 29.7453 2.44592C31.1157 1.53025 32.7268 1.0415 34.375 1.0415" stroke="white" stroke-width="2.08333" stroke-linecap="round" stroke-linejoin="round"/>
<path d="M42.7083 3.125L35.1125 10.7208C35.0157 10.8178 34.9008 10.8948 34.7742 10.9473C34.6477 10.9998 34.512 11.0269 34.375 11.0269C34.238 11.0269 34.1023 10.9998 33.9758 10.9473C33.8492 10.8948 33.7343 10.8178 33.6375 10.7208L31.25 8.33333" stroke="white" stroke-width="2.08333" stroke-linecap="round" stroke-linejoin="round"/>
</g>
<defs>
<clipPath id="clip0_715_314">
<rect width="50" height="50" fill="white"/>
</clipPath>
</defs>
</svg>
