<svg width="31" height="25" viewBox="0 0 31 25" fill="none" xmlns="http://www.w3.org/2000/svg">
<path d="M3.08329 3.08317L12.4992 10.1937L12.5024 10.1964C13.5479 10.9631 14.071 11.3467 14.6439 11.4948C15.1503 11.6258 15.6826 11.6258 16.189 11.4948C16.7624 11.3465 17.287 10.9618 18.3344 10.1937C18.3344 10.1937 24.3738 5.55899 27.75 3.08317M1.54163 18.1918V6.47514C1.54163 4.74831 1.54163 3.88425 1.87769 3.22469C2.1733 2.64452 2.64465 2.17318 3.22481 1.87757C3.88437 1.5415 4.74843 1.5415 6.47526 1.5415H24.3586C26.0854 1.5415 26.9476 1.5415 27.6072 1.87757C28.1874 2.17318 28.6603 2.64452 28.9559 3.22469C29.2916 3.88361 29.2916 4.74662 29.2916 6.47007V18.197C29.2916 19.9205 29.2916 20.7822 28.9559 21.4412C28.6603 22.0213 28.1874 22.4935 27.6072 22.7891C26.9483 23.1248 26.0865 23.1248 24.3631 23.1248H6.4702C4.74674 23.1248 3.88373 23.1248 3.22481 22.7891C2.64465 22.4935 2.1733 22.0213 1.87769 21.4412C1.54163 20.7816 1.54163 19.9186 1.54163 18.1918Z" stroke="white" stroke-width="3.08333" stroke-linecap="round" stroke-linejoin="round"/>
</svg>
