<svg width="114" height="108" viewBox="0 0 114 108" fill="none" xmlns="http://www.w3.org/2000/svg">
<path d="M65.7825 0L60.1125 5.67L68.5125 14.07C69.6675 15.3825 70.245 16.905 70.245 18.6375C70.245 20.37 69.6675 21.9975 68.5125 23.1525L49.875 42.105L55.125 47.775L74.1825 28.8225C76.965 25.725 78.33 22.3125 78.33 18.6375C78.33 14.9625 76.965 11.4975 74.1825 8.4L65.7825 0ZM44.8875 10.605L39.2175 16.275L42.42 19.215C43.575 20.37 44.1525 21.945 44.1525 23.8875C44.1525 25.83 43.575 27.405 42.42 28.56L39.2175 31.5L44.8875 37.17L47.8275 33.9675C50.61 30.87 52.0275 27.51 52.0275 23.8875C52.0275 20.1075 50.61 16.695 47.8275 13.545L44.8875 10.605ZM99.75 18.9525C96.1275 18.9525 92.7675 20.37 89.67 23.1525L60.1125 52.7625L65.7825 58.0125L95.0775 28.8225C96.39 27.51 97.965 26.8275 99.75 26.8275C101.535 26.8275 103.11 27.51 104.423 28.8225L107.625 32.025L113.033 26.355L110.092 23.1525C106.995 20.37 103.53 18.9525 99.75 18.9525ZM26.25 34.3875L0 107.887L73.5 81.6375L26.25 34.3875ZM89.25 50.4525C85.575 50.4525 82.215 51.87 79.065 54.6525L70.7175 63L76.3875 68.67L84.735 60.3225C86.0475 59.01 87.5175 58.3275 89.25 58.3275C90.9825 58.3275 92.5575 59.01 93.87 60.3225L102.375 68.67L107.887 63.2625L99.4875 54.6525C96.39 51.87 92.925 50.4525 89.25 50.4525Z" fill="#14565B"/>
</svg>
