<svg width="48" height="48" viewBox="0 0 48 48" fill="none" xmlns="http://www.w3.org/2000/svg">
<g clip-path="url(#clip0_715_333)">
<path d="M15.5081 23H9.50806" stroke="#14565B" stroke-width="2" stroke-linecap="round" stroke-linejoin="round"/>
<path d="M18.5081 12C18.4632 10.4229 17.8167 8.92265 16.7011 7.807C15.5854 6.69135 14.0852 6.04482 12.5081 6C10.9309 6.04482 9.43071 6.69135 8.31506 7.807C7.19941 8.92265 6.55288 10.4229 6.50806 12C6.53057 13.0222 6.81908 14.021 7.34514 14.8977C7.87121 15.7745 8.61667 16.4991 9.50806 17V19H15.5081V17C16.3992 16.4988 17.1444 15.7741 17.6705 14.8974C18.1965 14.0207 18.4852 13.0222 18.5081 12Z" stroke="#14565B" stroke-width="2" stroke-linecap="round" stroke-linejoin="round"/>
<path d="M12.5081 1V3" stroke="#14565B" stroke-width="2" stroke-linecap="round" stroke-linejoin="round"/>
<path d="M20.2861 4.22217L18.8721 5.63617" stroke="#14565B" stroke-width="2" stroke-linecap="round" stroke-linejoin="round"/>
<path d="M23.5081 11H21.5081" stroke="#14565B" stroke-width="2" stroke-linecap="round" stroke-linejoin="round"/>
<path d="M4.72998 4.22217L6.14398 5.63617" stroke="#14565B" stroke-width="2" stroke-linecap="round" stroke-linejoin="round"/>
<path d="M1.50806 11H3.50806" stroke="#14565B" stroke-width="2" stroke-linecap="round" stroke-linejoin="round"/>
<path d="M26.52 5.23779C30.9803 5.95392 35.0395 8.23583 37.9695 11.6742C40.8995 15.1125 42.5086 19.4824 42.508 23.9998" stroke="#14565B" stroke-width="2" stroke-linecap="round" stroke-linejoin="round"/>
<path d="M20.512 42.766C16.0488 42.0523 11.9862 39.771 9.05372 36.3315C6.12123 32.8921 4.51093 28.5199 4.51196 24" stroke="#14565B" stroke-width="2" stroke-linecap="round" stroke-linejoin="round"/>
<path d="M26.5081 37C26.5081 38.3132 26.7667 39.6136 27.2693 40.8268C27.7718 42.0401 28.5084 43.1425 29.437 44.0711C30.3656 44.9997 31.468 45.7362 32.6812 46.2388C33.8945 46.7413 35.1948 47 36.5081 47C37.8213 47 39.1216 46.7413 40.3349 46.2388C41.5481 45.7362 42.6505 44.9997 43.5791 44.0711C44.5077 43.1425 45.2443 42.0401 45.7469 40.8268C46.2494 39.6136 46.5081 38.3132 46.5081 37C46.5081 35.6868 46.2494 34.3864 45.7469 33.1732C45.2443 31.9599 44.5077 30.8575 43.5791 29.9289C42.6505 29.0003 41.5481 28.2638 40.3349 27.7612C39.1216 27.2587 37.8213 27 36.5081 27C35.1948 27 33.8945 27.2587 32.6812 27.7612C31.468 28.2638 30.3656 29.0003 29.437 29.9289C28.5084 30.8575 27.7718 31.9599 27.2693 33.1732C26.7667 34.3864 26.5081 35.6868 26.5081 37Z" stroke="#14565B" stroke-width="2" stroke-linecap="round" stroke-linejoin="round"/>
<path d="M36.5081 41V43" stroke="#14565B" stroke-width="2" stroke-linecap="round" stroke-linejoin="round"/>
<path d="M36.5081 31V33" stroke="#14565B" stroke-width="2" stroke-linecap="round" stroke-linejoin="round"/>
<path d="M32.5081 41H38.5081C39.0385 41 39.5472 40.7893 39.9223 40.4142C40.2973 40.0391 40.5081 39.5304 40.5081 39C40.5081 38.4696 40.2973 37.9609 39.9223 37.5858C39.5472 37.2107 39.0385 37 38.5081 37H34.5081C33.9776 37 33.4689 36.7893 33.0938 36.4142C32.7188 36.0391 32.5081 35.5304 32.5081 35C32.5081 34.4696 32.7188 33.9609 33.0938 33.5858C33.4689 33.2107 33.9776 33 34.5081 33H40.5081" stroke="#14565B" stroke-width="2" stroke-linecap="round" stroke-linejoin="round"/>
<path d="M18.5081 37L21.5081 43L16.5081 46" stroke="#14565B" stroke-width="2" stroke-linecap="round" stroke-linejoin="round"/>
<path d="M28.5081 10L26.5081 5L30.5081 2" stroke="#14565B" stroke-width="2" stroke-linecap="round" stroke-linejoin="round"/>
</g>
<defs>
<clipPath id="clip0_715_333">
<rect width="48" height="48" fill="white"/>
</clipPath>
</defs>
</svg>
