<svg width="38" height="38" viewBox="0 0 38 38" fill="none" xmlns="http://www.w3.org/2000/svg">
<path d="M22.2456 9.49996C23.7921 9.80169 25.2134 10.558 26.3276 11.6722C27.4417 12.7863 28.1981 14.2076 28.4998 15.7541M22.2456 3.16663C25.4586 3.52357 28.4548 4.9624 30.7422 7.24689C33.0295 9.53137 34.4721 12.5257 34.8331 15.7383M16.1925 21.9498C14.29 20.0473 12.7878 17.8961 11.6858 15.6009C11.591 15.4035 11.5436 15.3048 11.5072 15.1799C11.3778 14.736 11.4707 14.1909 11.7399 13.815C11.8156 13.7092 11.9061 13.6187 12.0871 13.4377C12.6407 12.8841 12.9175 12.6074 13.0984 12.329C13.7808 11.2795 13.7808 9.92639 13.0984 8.87681C12.9175 8.59849 12.6407 8.32172 12.0871 7.76818L11.7786 7.45964C10.9371 6.61819 10.5164 6.19746 10.0646 5.96891C9.16593 5.51439 8.10468 5.51439 7.20604 5.96892C6.75418 6.19746 6.33346 6.61819 5.49201 7.45964L5.24242 7.70922C4.40385 8.54779 3.98457 8.96708 3.66434 9.53713C3.30901 10.1697 3.05352 11.1521 3.05568 11.8776C3.05762 12.5315 3.18445 12.9783 3.43812 13.872C4.80132 18.6749 7.3734 23.207 11.1544 26.988C14.9353 30.7689 19.4674 33.341 24.2703 34.7042C25.164 34.9579 25.6108 35.0847 26.2647 35.0866C26.9902 35.0888 27.9726 34.8333 28.6052 34.478C29.1752 34.1578 29.5945 33.7385 30.4331 32.8999L30.6827 32.6503C31.5241 31.8089 31.9449 31.3881 32.1734 30.9363C32.6279 30.0376 32.6279 28.9764 32.1734 28.0778C31.9449 27.6259 31.5241 27.2052 30.6827 26.3637L30.3741 26.0552C29.8206 25.5016 29.5438 25.2249 29.2655 25.0439C28.2159 24.3615 26.8629 24.3615 25.8133 25.0439C25.535 25.2249 25.2582 25.5016 24.7046 26.0552C24.5237 26.2362 24.4332 26.3267 24.3274 26.4024C23.9514 26.6716 23.4064 26.7646 22.9625 26.6352C22.8376 26.5987 22.7388 26.5514 22.5414 26.4566C20.2462 25.3546 18.095 23.8523 16.1925 21.9498Z" stroke="#0C1E33" stroke-width="3.16667" stroke-linecap="round" stroke-linejoin="round"/>
</svg>
