<svg width="52" height="52" viewBox="0 0 52 52" fill="none" xmlns="http://www.w3.org/2000/svg">
<g clip-path="url(#clip0_715_304)">
<path d="M10.6136 25.777C10.6136 27.7562 11.0034 29.7159 11.7608 31.5444C12.5182 33.3729 13.6283 35.0343 15.0278 36.4338C16.4272 37.8333 18.0886 38.9434 19.9171 39.7008C21.7456 40.4582 23.7054 40.848 25.6846 40.848C27.6637 40.848 29.6235 40.4582 31.452 39.7008C33.2805 38.9434 34.9419 37.8333 36.3413 36.4338C37.7408 35.0343 38.8509 33.3729 39.6083 31.5444C40.3657 29.7159 40.7555 27.7562 40.7555 25.777C40.7555 23.7979 40.3657 21.8381 39.6083 20.0096C38.8509 18.1811 37.7408 16.5197 36.3413 15.1202C34.9419 13.7208 33.2805 12.6107 31.452 11.8533C29.6235 11.0959 27.6637 10.7061 25.6846 10.7061C23.7054 10.7061 21.7456 11.0959 19.9171 11.8533C18.0886 12.6107 16.4272 13.7208 15.0278 15.1202C13.6283 16.5197 12.5182 18.1811 11.7608 20.0096C11.0034 21.8381 10.6136 23.7979 10.6136 25.777Z" stroke="#14565B" stroke-width="2.15299" stroke-linecap="round" stroke-linejoin="round"/>
<path d="M14.9196 30.0855L16.4762 27.7516C16.6345 27.5142 16.8805 27.3493 17.1603 27.2932C17.44 27.2371 17.7307 27.2943 17.9682 27.4524L19.4969 28.4707C19.719 28.6174 19.9876 28.6766 20.2508 28.6368C20.5141 28.5971 20.7532 28.4612 20.9221 28.2554L24.9289 23.4435C25.0247 23.3285 25.1435 23.2348 25.2775 23.1683C25.4116 23.1018 25.5581 23.064 25.7076 23.0574C25.8572 23.0507 26.0064 23.0752 26.1459 23.1295C26.2854 23.1837 26.4121 23.2665 26.5178 23.3724L29.1573 26.012C29.2632 26.1175 29.3898 26.1998 29.5292 26.2536C29.6685 26.3075 29.8176 26.3317 29.9668 26.3249C30.1161 26.318 30.2623 26.2801 30.3961 26.2136C30.5299 26.1472 30.6484 26.0536 30.7441 25.9388L35.373 20.3862" stroke="#14565B" stroke-width="2.15299" stroke-linecap="round" stroke-linejoin="round"/>
<path d="M49.6565 29.184C49.9183 29.1513 50.1589 29.0236 50.3328 28.8252C50.5066 28.6267 50.6015 28.3714 50.5995 28.1075V23.5561C50.6015 23.2923 50.5066 23.0369 50.3328 22.8385C50.1589 22.64 49.9183 22.5123 49.6565 22.4796L44.8101 21.8746C44.3161 19.501 43.3774 17.2422 42.0435 15.2176L45.0469 11.3529C45.2077 11.1459 45.2875 10.8874 45.2712 10.6258C45.255 10.3642 45.1438 10.1175 44.9587 9.93196L41.7292 6.70247C41.5437 6.51728 41.297 6.40613 41.0354 6.38988C40.7737 6.37363 40.5152 6.45339 40.3082 6.61419L36.4436 9.62839C34.4186 8.29472 32.16 7.35535 29.7865 6.85964L29.188 2.0197C29.1553 1.75792 29.0276 1.51725 28.8291 1.34341C28.6307 1.16957 28.3753 1.07466 28.1115 1.07669H23.56C23.2962 1.07466 23.0408 1.16957 22.8424 1.34341C22.644 1.51725 22.5163 1.75792 22.4835 2.0197L21.8786 6.86394C19.508 7.36068 17.2525 8.30002 15.2301 9.63269L11.3655 6.62927C11.1585 6.46846 10.8999 6.3887 10.6383 6.40495C10.3767 6.4212 10.13 6.53235 9.94451 6.71754L6.71501 9.94703C6.52982 10.1325 6.41868 10.3792 6.40243 10.6408C6.38618 10.9025 6.46593 11.161 6.62674 11.368L9.64093 15.2434C8.30706 17.268 7.36834 19.5268 6.87433 21.9005L2.02794 22.5055C1.76616 22.5382 1.52549 22.6659 1.35165 22.8643C1.17781 23.0628 1.0829 23.3181 1.08493 23.5819V28.142C1.0829 28.4058 1.17781 28.6612 1.35165 28.8596C1.52549 29.0581 1.76616 29.1858 2.02794 29.2185L6.87433 29.8235C7.36834 32.1972 8.30706 34.4559 9.64093 36.4805L6.6332 40.3107C6.47239 40.5177 6.39263 40.7763 6.40889 41.0379C6.42514 41.2995 6.53628 41.5462 6.72147 41.7317L9.95096 44.9612C10.1365 45.1464 10.3832 45.2575 10.6448 45.2738C10.9064 45.29 11.1649 45.2103 11.3719 45.0495L15.2473 42.046C17.2723 43.3797 19.5309 44.3191 21.9044 44.8148L22.5094 49.659C22.5421 49.9208 22.6698 50.1615 22.8682 50.3353C23.0667 50.5092 23.3221 50.6041 23.5859 50.602H28.1459C28.4097 50.6041 28.6651 50.5092 28.8636 50.3353C29.062 50.1615 29.1897 49.9208 29.2224 49.659L29.8274 44.8148C32.2009 44.3191 34.4595 43.3797 36.4845 42.046L40.3491 45.0495C40.5561 45.2103 40.8146 45.29 41.0763 45.2738C41.3379 45.2575 41.5846 45.1464 41.7701 44.9612L44.9996 41.7317C45.1848 41.5462 45.2959 41.2995 45.3122 41.0379C45.3284 40.7763 45.2486 40.5177 45.0878 40.3107L42.0844 36.4461C43.4183 34.4215 44.357 32.1627 44.851 29.789L49.6565 29.184Z" stroke="#14565B" stroke-width="2.15299" stroke-linecap="round" stroke-linejoin="round"/>
</g>
<defs>
<clipPath id="clip0_715_304">
<rect width="51.6719" height="51.6719" fill="white"/>
</clipPath>
</defs>
</svg>
