<svg width="48" height="48" viewBox="0 0 48 48" fill="none" xmlns="http://www.w3.org/2000/svg">
<path d="M16.54 25H27.46" stroke="white" stroke-width="2" stroke-linecap="round" stroke-linejoin="round"/>
<path d="M26 38.7401C26 42.2601 22 45.0001 22 45.0001C22 45.0001 18 42.2601 18 38.7401C17.9544 38.2145 18.0288 37.6855 18.2177 37.193C18.4065 36.7004 18.7049 36.2573 19.0902 35.897C19.4755 35.5368 19.9377 35.2688 20.4418 35.1134C20.9459 34.958 21.4787 34.9193 22 35.0001C22.5213 34.9193 23.0541 34.958 23.5582 35.1134C24.0623 35.2688 24.5245 35.5368 24.9098 35.897C25.2951 36.2573 25.5934 36.7004 25.7823 37.193C25.9712 37.6855 26.0456 38.2145 26 38.7401Z" stroke="white" stroke-width="2" stroke-linecap="round" stroke-linejoin="round"/>
<path d="M22 1C11 10 15.12 20 18 30H26C28.88 20 33 10 22 1Z" stroke="white" stroke-width="2" stroke-linecap="round" stroke-linejoin="round"/>
<path d="M16.22 24L14.22 25.04C13.5623 25.4079 13.0118 25.9407 12.6225 26.5859C12.2332 27.2312 12.0187 27.9667 12 28.72V32C11.9951 32.1888 12.0407 32.3755 12.1321 32.5408C12.2235 32.706 12.3574 32.8438 12.52 32.94C12.6741 33.0423 12.855 33.0969 13.04 33.0969C13.225 33.0969 13.4059 33.0423 13.56 32.94L18 30" stroke="white" stroke-width="2" stroke-linecap="round" stroke-linejoin="round"/>
<path d="M27.78 23.8599L29.78 24.9399C30.4522 25.3162 31.0122 25.8647 31.4023 26.529C31.7925 27.1933 31.9988 27.9495 32 28.7199V31.9999C32.0049 32.1887 31.9593 32.3754 31.8679 32.5406C31.7765 32.7059 31.6426 32.8437 31.48 32.9399C31.3259 33.0422 31.145 33.0968 30.96 33.0968C30.775 33.0968 30.5941 33.0422 30.44 32.9399L26 29.9999" stroke="white" stroke-width="2" stroke-linecap="round" stroke-linejoin="round"/>
<path d="M19 13C19 13.394 19.0776 13.7841 19.2284 14.1481C19.3791 14.512 19.6001 14.8427 19.8787 15.1213C20.1573 15.3999 20.488 15.6209 20.8519 15.7716C21.2159 15.9224 21.606 16 22 16C22.394 16 22.7841 15.9224 23.1481 15.7716C23.512 15.6209 23.8427 15.3999 24.1213 15.1213C24.3999 14.8427 24.6209 14.512 24.7716 14.1481C24.9224 13.7841 25 13.394 25 13C25 12.606 24.9224 12.2159 24.7716 11.8519C24.6209 11.488 24.3999 11.1573 24.1213 10.8787C23.8427 10.6001 23.512 10.3791 23.1481 10.2284C22.7841 10.0776 22.394 10 22 10C21.606 10 21.2159 10.0776 20.8519 10.2284C20.488 10.3791 20.1573 10.6001 19.8787 10.8787C19.6001 11.1573 19.3791 11.488 19.2284 11.8519C19.0776 12.2159 19 12.606 19 13Z" stroke="white" stroke-width="2" stroke-linecap="round" stroke-linejoin="round"/>
<path d="M13 38C11 38 9.00005 39.1 9.00005 41V42H8.00005C7.33895 41.9835 6.68139 42.1016 6.06732 42.3471C5.45325 42.5925 4.89547 42.9602 4.42785 43.4278C3.96024 43.8954 3.59254 44.4532 3.3471 45.0673C3.10166 45.6813 2.98358 46.3389 3.00005 47" stroke="white" stroke-width="2" stroke-linecap="round" stroke-linejoin="round"/>
<path d="M30 38C31.9 38 34 39.1 34 41V42H35C35.6611 41.9835 36.3187 42.1016 36.9327 42.3471C37.5468 42.5925 38.1046 42.9602 38.5722 43.4278C39.0398 43.8954 39.4075 44.4532 39.6529 45.0673C39.8984 45.6813 40.0165 46.3389 40 47" stroke="white" stroke-width="2" stroke-linecap="round" stroke-linejoin="round"/>
</svg>
