<svg width="45" height="45" viewBox="0 0 45 45" fill="none" xmlns="http://www.w3.org/2000/svg">
<g clip-path="url(#clip0_372_480)">
<path d="M2.34375 21.0938C2.34375 21.6478 2.45287 22.1964 2.66488 22.7082C2.8769 23.22 3.18765 23.6851 3.57939 24.0769C3.97114 24.4686 4.43621 24.7794 4.94805 24.9914C5.4599 25.2034 6.00849 25.3125 6.5625 25.3125C7.11651 25.3125 7.6651 25.2034 8.17695 24.9914C8.68879 24.7794 9.15386 24.4686 9.54561 24.0769C9.93735 23.6851 10.2481 23.22 10.4601 22.7082C10.6721 22.1964 10.7813 21.6478 10.7812 21.0938C10.7813 20.5397 10.6721 19.9911 10.4601 19.4793C10.2481 18.9675 9.93735 18.5024 9.54561 18.1106C9.15386 17.7189 8.68879 17.4081 8.17695 17.1961C7.6651 16.9841 7.11651 16.875 6.5625 16.875C6.00849 16.875 5.4599 16.9841 4.94805 17.1961C4.43621 17.4081 3.97114 17.7189 3.57939 18.1106C3.18765 18.5024 2.8769 18.9675 2.66488 19.4793C2.45287 19.9911 2.34375 20.5397 2.34375 21.0938Z" stroke="#14565B" stroke-width="1.875" stroke-linecap="round" stroke-linejoin="round"/>
<path d="M8.4375 44.0625L9.375 36.5625H12.1875V32.8125C12.1875 31.3207 11.5949 29.8899 10.54 28.835C9.48508 27.7801 8.05434 27.1875 6.5625 27.1875C5.07066 27.1875 3.63992 27.7801 2.58502 28.835C1.53013 29.8899 0.9375 31.3207 0.9375 32.8125V36.5625H3.75L4.6875 44.0625" stroke="#14565B" stroke-width="1.875" stroke-linecap="round" stroke-linejoin="round"/>
<path d="M34.2188 21.0938C34.2188 22.2126 34.6632 23.2857 35.4544 24.0769C36.2456 24.868 37.3186 25.3125 38.4375 25.3125C39.5564 25.3125 40.6294 24.868 41.4206 24.0769C42.2118 23.2857 42.6562 22.2126 42.6562 21.0938C42.6562 19.9749 42.2118 18.9018 41.4206 18.1106C40.6294 17.3195 39.5564 16.875 38.4375 16.875C37.3186 16.875 36.2456 17.3195 35.4544 18.1106C34.6632 18.9018 34.2188 19.9749 34.2188 21.0938Z" stroke="#14565B" stroke-width="1.875" stroke-linecap="round" stroke-linejoin="round"/>
<path d="M40.3125 44.0625L41.25 36.5625H44.0625V32.8125C44.0625 31.3207 43.4699 29.8899 42.415 28.835C41.3601 27.7801 39.9293 27.1875 38.4375 27.1875C36.9457 27.1875 35.5149 27.7801 34.46 28.835C33.4051 29.8899 32.8125 31.3207 32.8125 32.8125V36.5625H35.625L36.5625 44.0625" stroke="#14565B" stroke-width="1.875" stroke-linecap="round" stroke-linejoin="round"/>
<path d="M12.1875 11.25C12.1875 13.985 13.274 16.6081 15.208 18.542C17.1419 20.476 19.765 21.5625 22.5 21.5625C25.235 21.5625 27.8581 20.476 29.792 18.542C31.726 16.6081 32.8125 13.985 32.8125 11.25C32.8125 8.51496 31.726 5.89193 29.792 3.95796C27.8581 2.02399 25.235 0.9375 22.5 0.9375C19.765 0.9375 17.1419 2.02399 15.208 3.95796C13.274 5.89193 12.1875 8.51496 12.1875 11.25Z" stroke="#14565B" stroke-width="1.875" stroke-linecap="round" stroke-linejoin="round"/>
<path d="M20.0812 13.5925C20.0663 14.0738 20.1954 14.5486 20.4519 14.9561C20.7085 15.3637 21.0808 15.6853 21.5212 15.8799C21.9617 16.0746 22.4502 16.1333 22.9242 16.0486C23.3982 15.9639 23.8362 15.7397 24.182 15.4046C24.5278 15.0695 24.7657 14.6388 24.8653 14.1677C24.9649 13.6966 24.9216 13.2064 24.7409 12.7601C24.5602 12.3137 24.2505 11.9315 23.8512 11.6622C23.452 11.393 22.9815 11.249 22.5 11.2488C22.0391 11.234 21.5929 11.0836 21.217 10.8165C20.8412 10.5493 20.5526 10.1772 20.3872 9.7468C20.2219 9.31637 20.1871 8.84673 20.2874 8.39666C20.3876 7.94659 20.6184 7.53609 20.9508 7.21655C21.2833 6.89701 21.7026 6.68262 22.1562 6.60022C22.6099 6.51783 23.0778 6.57109 23.5014 6.75333C23.9249 6.93557 24.2853 7.2387 24.5374 7.62478C24.7896 8.01085 24.9222 8.46271 24.9187 8.9238" stroke="#14565B" stroke-width="1.875" stroke-linecap="round" stroke-linejoin="round"/>
<path d="M22.4971 4.6875V6.58125" stroke="#14565B" stroke-width="1.875" stroke-linecap="round" stroke-linejoin="round"/>
<path d="M22.4971 15.9192V17.8129" stroke="#14565B" stroke-width="1.875" stroke-linecap="round" stroke-linejoin="round"/>
</g>
<defs>
<clipPath id="clip0_372_480">
<rect width="45" height="45" fill="white"/>
</clipPath>
</defs>
</svg>
