<svg width="41" height="41" viewBox="0 0 41 41" fill="none" xmlns="http://www.w3.org/2000/svg">
<path d="M17.9375 21.3538L27.3333 11.958" stroke="white" stroke-width="1.70833" stroke-linecap="round" stroke-linejoin="round"/>
<path d="M28.3398 4.97304C28.0201 5.29089 27.7664 5.66888 27.5934 6.08522C27.4204 6.50156 27.3316 6.94802 27.3319 7.39887V11.9601H31.8932C32.344 11.9605 32.7905 11.8716 33.2068 11.6986C33.6232 11.5256 34.0011 11.272 34.319 10.9522L38.4361 6.83512H32.4569V0.855957L28.3398 4.97304Z" stroke="white" stroke-width="1.70833" stroke-linecap="round" stroke-linejoin="round"/>
<path d="M26.0684 18.7925C26.3455 19.6418 26.4839 20.5301 26.4784 21.4234C26.4906 23.3981 25.8182 25.316 24.5756 26.8508C23.333 28.3856 21.597 29.4424 19.663 29.8415C17.729 30.2405 15.7165 29.9571 13.9679 29.0395C12.2193 28.1219 10.8426 26.6268 10.0722 24.8085C9.30173 22.9903 9.18509 20.9612 9.7421 19.0667C10.2991 17.1721 11.4954 15.5291 13.1273 14.4172C14.7592 13.3052 16.726 12.7931 18.693 12.9679C20.66 13.1427 22.5057 13.9936 23.9159 15.3759" stroke="white" stroke-width="1.70833" stroke-linecap="round" stroke-linejoin="round"/>
<path d="M32.4623 16.2297C33.619 19.5432 33.6074 23.1526 32.4293 26.4586C31.2512 29.7645 28.9775 32.5678 25.986 34.403C22.9944 36.2381 19.4651 36.9945 15.9842 36.5466C12.5034 36.0987 9.2805 34.4735 6.851 31.9408C4.42149 29.4081 2.93158 26.1204 2.62877 22.624C2.32595 19.1275 3.22846 15.6327 5.18636 12.72C7.14427 9.80733 10.0397 7.65216 13.3918 6.61249C16.7438 5.57282 20.3506 5.71123 23.6131 7.00473" stroke="white" stroke-width="1.70833" stroke-linecap="round" stroke-linejoin="round"/>
<path d="M8.35558 33.3811L2.56433 40.1461" stroke="white" stroke-width="1.70833" stroke-linecap="round" stroke-linejoin="round"/>
<path d="M27.5236 33.3811L33.3149 40.1461" stroke="white" stroke-width="1.70833" stroke-linecap="round" stroke-linejoin="round"/>
</svg>
