<svg width="48" height="48" viewBox="0 0 48 48" fill="none" xmlns="http://www.w3.org/2000/svg">
<path d="M27.5741 31.452H28.0001C28.0001 31.452 34.9061 31.466 35.0001 31.452L39.3601 30.652C39.8205 30.5677 40.2368 30.3246 40.5365 29.965C40.8362 29.6054 41.0002 29.1521 41.0001 28.684V17.816C41.0001 17.4139 40.8789 17.0212 40.6523 16.6891C40.4258 16.3569 40.1044 16.1007 39.7301 15.954L29.6401 12C29.1427 11.8054 28.6025 11.7472 28.0751 11.8312C27.5477 11.9152 27.0523 12.1385 26.6401 12.478L19.3101 18.508C19.032 18.7356 18.8425 19.0534 18.7743 19.4062C18.7061 19.759 18.7636 20.1246 18.9368 20.4394C19.11 20.7543 19.388 20.9985 19.7225 21.1298C20.057 21.261 20.427 21.271 20.7681 21.158L29.0001 18.452" stroke="#14565B" stroke-width="2" stroke-linecap="round" stroke-linejoin="round"/>
<path d="M7 27.452L12.2 28.452L19.37 35.622C19.5963 35.8487 19.8738 36.0177 20.179 36.1148C20.4842 36.2119 20.8083 36.2343 21.124 36.18L22.124 36.006C22.5313 35.936 22.9069 35.7414 23.1992 35.4492C23.4914 35.1569 23.6859 34.7813 23.756 34.374L24.104 32.348L27.522 31.758L28.112 28.342L31.53 27.752L32.118 24.334L26.918 19.134" stroke="#14565B" stroke-width="2" stroke-linecap="round" stroke-linejoin="round"/>
<path d="M23.14 15.356L20.182 12.4C19.9024 12.1194 19.5457 11.9282 19.1572 11.8505C18.7688 11.7729 18.366 11.8124 18 11.964L12 14.452L7 15.452" stroke="#14565B" stroke-width="2" stroke-linecap="round" stroke-linejoin="round"/>
<path d="M1 12.452H5C5.53043 12.452 6.03914 12.6627 6.41421 13.0378C6.78929 13.4129 7 13.9216 7 14.452V28.452C7 28.9825 6.78929 29.4912 6.41421 29.8662C6.03914 30.2413 5.53043 30.452 5 30.452H1V12.452Z" stroke="#14565B" stroke-width="2" stroke-linecap="round" stroke-linejoin="round"/>
<path d="M43 14.452H47V32.452H43C42.4696 32.452 41.9609 32.2413 41.5858 31.8662C41.2107 31.4912 41 30.9825 41 30.452V16.452C41 15.9216 41.2107 15.4129 41.5858 15.0378C41.9609 14.6627 42.4696 14.452 43 14.452Z" stroke="#14565B" stroke-width="2" stroke-linecap="round" stroke-linejoin="round"/>
</svg>
