<svg width="42" height="42" viewBox="0 0 42 42" fill="none" xmlns="http://www.w3.org/2000/svg">
<g clip-path="url(#clip0_372_460)">
<path d="M0.872559 7.875H35.8726" stroke="#14565B" stroke-width="1.75" stroke-linecap="round" stroke-linejoin="round"/>
<path d="M5.6875 4.8125C5.44588 4.8125 5.25 4.61662 5.25 4.375C5.25 4.13338 5.44588 3.9375 5.6875 3.9375" stroke="#14565B" stroke-width="1.75"/>
<path d="M5.68994 4.8125C5.93156 4.8125 6.12744 4.61662 6.12744 4.375C6.12744 4.13338 5.93156 3.9375 5.68994 3.9375" stroke="#14565B" stroke-width="1.75"/>
<path d="M10.0649 4.8125C9.82332 4.8125 9.62744 4.61662 9.62744 4.375C9.62744 4.13338 9.82332 3.9375 10.0649 3.9375" stroke="#14565B" stroke-width="1.75"/>
<path d="M10.0601 4.8125C10.3017 4.8125 10.4976 4.61662 10.4976 4.375C10.4976 4.13338 10.3017 3.9375 10.0601 3.9375" stroke="#14565B" stroke-width="1.75"/>
<path d="M14.4351 4.8125C14.1934 4.8125 13.9976 4.61662 13.9976 4.375C13.9976 4.13338 14.1934 3.9375 14.4351 3.9375" stroke="#14565B" stroke-width="1.75"/>
<path d="M14.4375 4.8125C14.6791 4.8125 14.875 4.61662 14.875 4.375C14.875 4.13338 14.6791 3.9375 14.4375 3.9375" stroke="#14565B" stroke-width="1.75"/>
<path d="M13.1226 27.1262H4.37256C3.44431 27.1262 2.55406 26.7575 1.89769 26.1011C1.24131 25.4446 0.872559 24.5544 0.872559 23.6262V4.37622C0.872559 3.44797 1.24131 2.55773 1.89769 1.90135C2.55406 1.24497 3.44431 0.876221 4.37256 0.876221H32.3726C33.3008 0.876221 34.191 1.24497 34.8474 1.90135C35.5038 2.55773 35.8726 3.44797 35.8726 4.37622V13.1262" stroke="#14565B" stroke-width="1.75" stroke-linecap="round" stroke-linejoin="round"/>
<path d="M28.875 41.1238C34.674 41.1238 39.375 36.4228 39.375 30.6238C39.375 24.8248 34.674 20.1238 28.875 20.1238C23.076 20.1238 18.375 24.8248 18.375 30.6238C18.375 36.4228 23.076 41.1238 28.875 41.1238Z" stroke="#14565B" stroke-width="1.75" stroke-linecap="round" stroke-linejoin="round"/>
<path d="M28.875 23.625V30.625H34.125" stroke="#14565B" stroke-width="1.75" stroke-linecap="round" stroke-linejoin="round"/>
<path d="M20.9976 17.4988L16.6226 21.8738" stroke="#14565B" stroke-width="1.75" stroke-linecap="round" stroke-linejoin="round"/>
<path d="M41.125 21.8738L36.75 17.4988" stroke="#14565B" stroke-width="1.75" stroke-linecap="round" stroke-linejoin="round"/>
</g>
<defs>
<clipPath id="clip0_372_460">
<rect width="42" height="42" fill="white"/>
</clipPath>
</defs>
</svg>
