<svg width="38" height="38" viewBox="0 0 38 38" fill="none" xmlns="http://www.w3.org/2000/svg">
<circle cx="19.1187" cy="18.8766" r="4.86875" stroke="#14565B" stroke-width="2.375"/>
<circle cx="19.1219" cy="5.34844" r="2.73125" stroke="#14565B" stroke-width="2.375"/>
<circle cx="3.91875" cy="3.91875" r="2.73125" transform="matrix(1 0 0 -1 15.2031 36.5703)" stroke="#14565B" stroke-width="2.375"/>
<circle cx="30.8266" cy="25.7117" r="2.73125" transform="rotate(120 30.8266 25.7117)" stroke="#14565B" stroke-width="2.375"/>
<circle cx="7.17343" cy="12.0578" r="2.73125" transform="rotate(-60 7.17343 12.0578)" stroke="#14565B" stroke-width="2.375"/>
<path d="M19.1094 7.71875V14.25" stroke="#14565B" stroke-width="2.375"/>
<path d="M19.1094 30.2812V23.75" stroke="#14565B" stroke-width="2.375"/>
<path d="M28.6719 24.4648L23.0156 21.1992" stroke="#14565B" stroke-width="2.375"/>
<path d="M9.32812 13.3047L14.9844 16.5703" stroke="#14565B" stroke-width="2.375"/>
<circle cx="30.7375" cy="12.0875" r="2.73125" transform="rotate(60 30.7375 12.0875)" stroke="#14565B" stroke-width="2.375"/>
<circle cx="7.09842" cy="25.7445" r="2.73125" transform="rotate(-120 7.09842 25.7445)" stroke="#14565B" stroke-width="2.375"/>
<path d="M28.5703 13.332L22.9141 16.5977" stroke="#14565B" stroke-width="2.375"/>
<path d="M9.24219 24.5L14.8984 21.2344" stroke="#14565B" stroke-width="2.375"/>
</svg>
