<svg width="38" height="38" viewBox="0 0 38 38" fill="none" xmlns="http://www.w3.org/2000/svg">
<path d="M22.2453 9.49984C23.7918 9.80157 25.213 10.5579 26.3272 11.6721C27.4413 12.7862 28.1977 14.2075 28.4994 15.754M22.2453 3.1665C25.4583 3.52344 28.4544 4.96228 30.7418 7.24677C33.0292 9.53125 34.4718 12.5256 34.8328 15.7382M16.1921 21.9497C14.2896 20.0472 12.7874 17.896 11.6854 15.6008C11.5906 15.4034 11.5432 15.3046 11.5068 15.1797C11.3774 14.7358 11.4704 14.1908 11.7395 13.8148C11.8153 13.709 11.9058 13.6186 12.0868 13.4376C12.6403 12.884 12.9171 12.6072 13.098 12.3289C13.7805 11.2793 13.7804 9.92626 13.098 8.87669C12.9171 8.59837 12.6403 8.3216 12.0868 7.76806L11.7782 7.45951C10.9368 6.61806 10.5161 6.19734 10.0642 5.96879C9.16557 5.51427 8.10431 5.51427 7.20567 5.96879C6.75382 6.19734 6.33309 6.61806 5.49164 7.45951L5.24205 7.7091C4.40349 8.54767 3.9842 8.96696 3.66397 9.53701C3.30864 10.1696 3.05315 11.152 3.05531 11.8775C3.05726 12.5314 3.18409 12.9782 3.43775 13.8719C4.80095 18.6748 7.37304 23.2069 11.154 26.9878C14.935 30.7688 19.467 33.3409 24.2699 34.7041C25.1636 34.9577 25.6105 35.0846 26.2643 35.0865C26.9898 35.0887 27.9723 34.8332 28.6048 34.4779C29.1749 34.1576 29.5942 33.7384 30.4327 32.8998L30.6823 32.6502C31.5238 31.8087 31.9445 31.388 32.173 30.9362C32.6276 30.0375 32.6276 28.9763 32.173 28.0776C31.9445 27.6258 31.5238 27.2051 30.6823 26.3636L30.3738 26.0551C29.8202 25.5015 29.5435 25.2247 29.2652 25.0438C28.2156 24.3614 26.8625 24.3614 25.8129 25.0438C25.5346 25.2247 25.2578 25.5015 24.7043 26.0551C24.5233 26.2361 24.4328 26.3266 24.327 26.4023C23.9511 26.6715 23.406 26.7644 22.9621 26.635C22.8372 26.5986 22.7385 26.5512 22.5411 26.4564C20.2458 25.3544 18.0946 23.8522 16.1921 21.9497Z" stroke="white" stroke-width="3.16667" stroke-linecap="round" stroke-linejoin="round"/>
</svg>
