<svg width="50" height="50" viewBox="0 0 50 50" fill="none" xmlns="http://www.w3.org/2000/svg">
<mask id="mask0_579_2646" style="mask-type:luminance" maskUnits="userSpaceOnUse" x="0" y="0" width="50" height="50">
<path d="M49.1719 0.5V49.1719H0.5V0.5H49.1719Z" fill="white" stroke="white"/>
</mask>
<g mask="url(#mask0_579_2646)">
<path d="M11.2835 18.2329C10.841 16.3433 10.8133 14.3803 11.2021 12.4789C11.591 10.5776 12.3873 8.78308 13.5361 7.21896C14.6849 5.65483 16.1591 4.35823 17.857 3.4184C19.555 2.47858 21.4364 1.91785 23.3718 1.77481C25.3073 1.63178 27.2507 1.90984 29.0684 2.58985C30.886 3.26986 32.5348 4.33568 33.901 5.71392C35.2673 7.09217 36.3187 8.75012 36.9829 10.5736C37.647 12.3972 37.9082 14.3429 37.7483 16.277" stroke="white" stroke-width="2.06966" stroke-linecap="round" stroke-linejoin="round"/>
<path d="M12.2305 9.41846H14.7741C15.7669 9.49336 16.7 9.92169 17.404 10.6257C18.108 11.3297 18.5363 12.2628 18.6112 13.2556V16.8299C18.6112 17.3597 19.0831 17.8171 19.6026 18.2311" stroke="white" stroke-width="2.06966" stroke-linecap="round" stroke-linejoin="round"/>
<path d="M27.4221 2.09375C27.4221 2.09375 25.1827 3.8571 24.3631 4.48835C23.6991 4.99993 23.2634 5.75247 23.1503 6.583C23.0372 7.41353 23.2558 8.25519 23.7588 8.9257L25.6856 11.4962C25.9827 11.8918 26.3678 12.2129 26.8103 12.4342C27.2528 12.6555 27.7407 12.7708 28.2355 12.7711H30.0981C30.5168 12.7708 30.9313 12.853 31.3181 13.0132C31.7049 13.1734 32.0562 13.4083 32.352 13.7046L33.8235 15.174" stroke="white" stroke-width="2.06966" stroke-linecap="round" stroke-linejoin="round"/>
<path d="M42.0857 39.5498L31.7539 40.4108" stroke="white" stroke-width="2.06966" stroke-linecap="round" stroke-linejoin="round"/>
<path d="M29.8595 27.3517L22.6425 29.7381C22.0838 29.9217 21.4771 29.8934 20.9379 29.6587C20.3986 29.424 19.9645 28.9992 19.7181 28.4652C19.4532 27.8954 19.4199 27.245 19.6253 26.6511C19.8307 26.0573 20.2588 25.5664 20.8192 25.2821L27.8105 21.7637C28.4063 21.4635 29.0574 21.2887 29.7235 21.2503C30.3895 21.2118 31.0564 21.3105 31.6828 21.5401L42.0311 25.3255" stroke="white" stroke-width="2.06966" stroke-linecap="round" stroke-linejoin="round"/>
<path d="M21.8847 24.7459L21.1397 24.125C20.5402 23.6858 19.8387 23.4066 19.1014 23.3139C18.3641 23.2212 17.6153 23.318 16.9258 23.5952L7.66406 27.2999" stroke="white" stroke-width="2.06966" stroke-linecap="round" stroke-linejoin="round"/>
<path d="M1.42188 23.7542H5.58603C6.11468 23.7318 6.63068 23.9198 7.02096 24.2771C7.41123 24.6344 7.64394 25.1318 7.66811 25.6604V39.0139C7.64393 39.5426 7.41128 40.0402 7.02107 40.3979C6.63087 40.7555 6.11488 40.944 5.58603 40.9221H1.42188" stroke="white" stroke-width="2.06966" stroke-linecap="round" stroke-linejoin="round"/>
<path d="M48.2463 40.9244H44.0821C43.5533 40.9463 43.0373 40.7578 42.6471 40.4002C42.2569 40.0426 42.0242 39.5449 42 39.0162V25.6648C42.0242 25.1362 42.2569 24.6388 42.6472 24.2815C43.0375 23.9242 43.5535 23.7362 44.0821 23.7586H48.2442" stroke="white" stroke-width="2.06966" stroke-linecap="round" stroke-linejoin="round"/>
<path d="M27.0009 28.9751L32.3821 36.3617C32.7143 36.8179 32.906 37.3612 32.9338 37.9248C32.9616 38.4884 32.8242 39.0479 32.5384 39.5346C32.2527 40.0212 31.8311 40.4138 31.3253 40.6642C30.8196 40.9145 30.2517 41.0118 29.6915 40.944C29.5569 41.6631 29.1526 42.3037 28.5612 42.7346C27.9699 43.1655 27.2363 43.3542 26.5104 43.262C26.3754 43.9811 25.971 44.6215 25.3799 45.0527C24.7887 45.4838 24.0553 45.6732 23.3294 45.5821C23.2199 46.133 22.9527 46.6403 22.5601 47.0421C22.1676 47.4439 21.6668 47.723 21.1186 47.8454C20.5703 47.9678 19.9984 47.9281 19.4722 47.7313C18.9461 47.5345 18.4885 47.1891 18.1552 46.7369L12.7265 39.9153C12.3297 39.4113 11.828 38.9997 11.2561 38.7092C10.6843 38.4186 10.056 38.256 9.415 38.2327L7.66406 38.1706" stroke="white" stroke-width="2.06966" stroke-linecap="round" stroke-linejoin="round"/>
<path d="M23.3357 45.5785L21.8828 43.7944" stroke="white" stroke-width="2.06966" stroke-linecap="round" stroke-linejoin="round"/>
<path d="M26.5252 43.259L25.2812 41.6074" stroke="white" stroke-width="2.06966" stroke-linecap="round" stroke-linejoin="round"/>
<path d="M29.7035 40.9415L28.3438 39.0933" stroke="white" stroke-width="2.06966" stroke-linecap="round" stroke-linejoin="round"/>
</g>
</svg>
