<svg width="52" height="52" viewBox="0 0 52 52" fill="none" xmlns="http://www.w3.org/2000/svg">
<mask id="mask0_579_2612" style="mask-type:luminance" maskUnits="userSpaceOnUse" x="0" y="0" width="52" height="52">
<path d="M51.1719 0.5V51.1719H0.5V0.5H51.1719Z" fill="white" stroke="white"/>
</mask>
<g mask="url(#mask0_579_2612)">
<path d="M10.6133 25.777C10.6133 27.7562 11.0031 29.7159 11.7605 31.5444C12.5179 33.3729 13.628 35.0343 15.0275 36.4338C16.4269 37.8333 18.0883 38.9434 19.9168 39.7008C21.7453 40.4582 23.7051 40.848 25.6843 40.848C27.6634 40.848 29.6232 40.4582 31.4517 39.7008C33.2802 38.9434 34.9416 37.8333 36.341 36.4338C37.7405 35.0343 38.8506 33.3729 39.608 31.5444C40.3654 29.7159 40.7552 27.7562 40.7552 25.777C40.7552 23.7979 40.3654 21.8381 39.608 20.0096C38.8506 18.1811 37.7405 16.5197 36.341 15.1202C34.9416 13.7208 33.2802 12.6107 31.4517 11.8533C29.6232 11.0959 27.6634 10.7061 25.6843 10.7061C23.7051 10.7061 21.7453 11.0959 19.9168 11.8533C18.0883 12.6107 16.4269 13.7208 15.0275 15.1202C13.628 16.5197 12.5179 18.1811 11.7605 20.0096C11.0031 21.8381 10.6133 23.7979 10.6133 25.777Z" stroke="white" stroke-width="2.15299" stroke-linecap="round" stroke-linejoin="round"/>
<path d="M14.9219 30.0855L16.4785 27.7516C16.6368 27.5142 16.8828 27.3493 17.1626 27.2932C17.4423 27.2371 17.733 27.2943 17.9705 27.4524L19.4992 28.4707C19.7213 28.6174 19.9899 28.6766 20.2531 28.6368C20.5164 28.5971 20.7555 28.4612 20.9244 28.2554L24.9312 23.4435C25.027 23.3285 25.1458 23.2348 25.2798 23.1683C25.4139 23.1018 25.5604 23.064 25.7099 23.0574C25.8595 23.0507 26.0087 23.0752 26.1482 23.1295C26.2877 23.1837 26.4144 23.2665 26.5201 23.3724L29.1596 26.012C29.2655 26.1175 29.3921 26.1998 29.5315 26.2536C29.6708 26.3075 29.8199 26.3317 29.9691 26.3249C30.1184 26.318 30.2646 26.2801 30.3984 26.2136C30.5322 26.1472 30.6507 26.0536 30.7464 25.9388L35.3753 20.3862" stroke="white" stroke-width="2.15299" stroke-linecap="round" stroke-linejoin="round"/>
<path d="M49.6575 29.184C49.9193 29.1513 50.1599 29.0236 50.3338 28.8252C50.5076 28.6267 50.6025 28.3714 50.6005 28.1075V23.5561C50.6025 23.2923 50.5076 23.0369 50.3338 22.8385C50.1599 22.64 49.9193 22.5123 49.6575 22.4796L44.8111 21.8746C44.3171 19.501 43.3784 17.2422 42.0445 15.2176L45.0479 11.3529C45.2087 11.1459 45.2885 10.8874 45.2722 10.6258C45.256 10.3642 45.1448 10.1175 44.9597 9.93196L41.7302 6.70247C41.5447 6.51728 41.298 6.40613 41.0364 6.38988C40.7747 6.37363 40.5162 6.45339 40.3092 6.61419L36.4446 9.62839C34.4196 8.29472 32.161 7.35535 29.7875 6.85964L29.189 2.0197C29.1563 1.75792 29.0286 1.51725 28.8301 1.34341C28.6317 1.16957 28.3763 1.07466 28.1125 1.07669H23.561C23.2972 1.07466 23.0418 1.16957 22.8434 1.34341C22.645 1.51725 22.5173 1.75792 22.4845 2.0197L21.8796 6.86394C19.509 7.36068 17.2535 8.30002 15.2311 9.63269L11.3665 6.62927C11.1595 6.46846 10.9009 6.3887 10.6393 6.40495C10.3777 6.4212 10.131 6.53235 9.94555 6.71754L6.71605 9.94703C6.53086 10.1325 6.41972 10.3792 6.40347 10.6408C6.38722 10.9025 6.46697 11.161 6.62778 11.368L9.64197 15.2434C8.3081 17.268 7.36938 19.5268 6.87537 21.9005L2.02898 22.5055C1.7672 22.5382 1.52653 22.6659 1.35269 22.8643C1.17885 23.0628 1.08394 23.3181 1.08597 23.5819V28.142C1.08394 28.4058 1.17885 28.6612 1.35269 28.8596C1.52653 29.0581 1.7672 29.1858 2.02898 29.2185L6.87537 29.8235C7.36938 32.1972 8.3081 34.4559 9.64197 36.4805L6.63424 40.3107C6.47343 40.5177 6.39367 40.7763 6.40993 41.0379C6.42618 41.2995 6.53732 41.5462 6.72251 41.7317L9.952 44.9612C10.1375 45.1464 10.3842 45.2575 10.6458 45.2738C10.9074 45.29 11.1659 45.2103 11.3729 45.0495L15.2483 42.046C17.2733 43.3797 19.5319 44.3191 21.9054 44.8148L22.5104 49.659C22.5431 49.9208 22.6708 50.1615 22.8692 50.3353C23.0677 50.5092 23.3231 50.6041 23.5869 50.602H28.1469C28.4107 50.6041 28.6661 50.5092 28.8646 50.3353C29.063 50.1615 29.1907 49.9208 29.2234 49.659L29.8284 44.8148C32.2019 44.3191 34.4605 43.3797 36.4855 42.046L40.3501 45.0495C40.5571 45.2103 40.8156 45.29 41.0773 45.2738C41.3389 45.2575 41.5856 45.1464 41.7711 44.9612L45.0006 41.7317C45.1858 41.5462 45.2969 41.2995 45.3132 41.0379C45.3294 40.7763 45.2496 40.5177 45.0888 40.3107L42.0854 36.4461C43.4193 34.4215 44.358 32.1627 44.852 29.789L49.6575 29.184Z" stroke="white" stroke-width="2.15299" stroke-linecap="round" stroke-linejoin="round"/>
</g>
</svg>
