<svg width="50" height="50" viewBox="0 0 50 50" fill="none" xmlns="http://www.w3.org/2000/svg">
<g clip-path="url(#clip0_715_285)">
<path d="M11.2842 18.2329C10.8417 16.3433 10.814 14.3803 11.2028 12.4789C11.5917 10.5776 12.388 8.78308 13.5368 7.21896C14.6856 5.65483 16.1598 4.35823 17.8577 3.4184C19.5557 2.47858 21.4371 1.91785 23.3725 1.77481C25.308 1.63178 27.2514 1.90984 29.0691 2.58985C30.8867 3.26986 32.5355 4.33568 33.9017 5.71392C35.268 7.09217 36.3194 8.75012 36.9836 10.5736C37.6477 12.3972 37.9089 14.3429 37.749 16.277" stroke="#14565B" stroke-width="2.06966" stroke-linecap="round" stroke-linejoin="round"/>
<path d="M12.2321 9.41846H14.7757C15.7685 9.49336 16.7016 9.92169 17.4056 10.6257C18.1096 11.3297 18.5379 12.2628 18.6128 13.2556V16.8299C18.6128 17.3597 19.0847 17.8171 19.6042 18.2311" stroke="#14565B" stroke-width="2.06966" stroke-linecap="round" stroke-linejoin="round"/>
<path d="M27.4229 2.09375C27.4229 2.09375 25.1835 3.8571 24.3639 4.48835C23.6999 4.99993 23.2642 5.75247 23.1511 6.583C23.038 7.41353 23.2566 8.25519 23.7596 8.9257L25.6864 11.4962C25.9835 11.8918 26.3686 12.2129 26.8111 12.4342C27.2536 12.6555 27.7415 12.7708 28.2363 12.7711H30.0989C30.5176 12.7708 30.9321 12.853 31.3189 13.0132C31.7057 13.1734 32.057 13.4083 32.3528 13.7046L33.8243 15.174" stroke="#14565B" stroke-width="2.06966" stroke-linecap="round" stroke-linejoin="round"/>
<path d="M42.0881 39.5498L31.7563 40.4108" stroke="#14565B" stroke-width="2.06966" stroke-linecap="round" stroke-linejoin="round"/>
<path d="M29.8594 27.3517L22.6424 29.7381C22.0837 29.9217 21.477 29.8934 20.9378 29.6587C20.3985 29.424 19.9644 28.9992 19.718 28.4652C19.4531 27.8954 19.4198 27.245 19.6252 26.6511C19.8306 26.0573 20.2587 25.5664 20.8191 25.2821L27.8104 21.7637C28.4062 21.4635 29.0573 21.2887 29.7234 21.2503C30.3894 21.2118 31.0563 21.3105 31.6827 21.5401L42.031 25.3255" stroke="#14565B" stroke-width="2.06966" stroke-linecap="round" stroke-linejoin="round"/>
<path d="M21.8848 24.7459L21.1398 24.125C20.5403 23.6858 19.8388 23.4066 19.1015 23.3139C18.3642 23.2212 17.6154 23.318 16.9259 23.5952L7.66418 27.2999" stroke="#14565B" stroke-width="2.06966" stroke-linecap="round" stroke-linejoin="round"/>
<path d="M1.42285 23.7542H5.58701C6.11566 23.7318 6.63165 23.9198 7.02193 24.2771C7.4122 24.6344 7.64492 25.1318 7.66909 25.6604V39.0139C7.64491 39.5426 7.41226 40.0402 7.02205 40.3979C6.63185 40.7555 6.11586 40.944 5.58701 40.9221H1.42285" stroke="#14565B" stroke-width="2.06966" stroke-linecap="round" stroke-linejoin="round"/>
<path d="M48.2459 40.9244H44.0817C43.5529 40.9463 43.0369 40.7578 42.6467 40.4002C42.2565 40.0426 42.0238 39.5449 41.9996 39.0162V25.6648C42.0238 25.1362 42.2565 24.6388 42.6468 24.2815C43.0371 23.9242 43.5531 23.7362 44.0817 23.7586H48.2438" stroke="#14565B" stroke-width="2.06966" stroke-linecap="round" stroke-linejoin="round"/>
<path d="M27.001 28.9751L32.3822 36.3617C32.7144 36.8179 32.9061 37.3612 32.9339 37.9248C32.9617 38.4884 32.8243 39.0479 32.5385 39.5346C32.2528 40.0212 31.8312 40.4138 31.3254 40.6642C30.8197 40.9145 30.2518 41.0118 29.6916 40.944C29.557 41.6631 29.1527 42.3037 28.5613 42.7346C27.97 43.1655 27.2364 43.3542 26.5105 43.262C26.3755 43.9811 25.9711 44.6215 25.38 45.0527C24.7888 45.4838 24.0554 45.6732 23.3295 45.5821C23.22 46.133 22.9528 46.6403 22.5602 47.0421C22.1677 47.4439 21.6669 47.723 21.1187 47.8454C20.5704 47.9678 19.9985 47.9281 19.4723 47.7313C18.9462 47.5345 18.4886 47.1891 18.1553 46.7369L12.7266 39.9153C12.3298 39.4113 11.8281 38.9997 11.2562 38.7092C10.6844 38.4186 10.0561 38.256 9.41512 38.2327L7.66418 38.1706" stroke="#14565B" stroke-width="2.06966" stroke-linecap="round" stroke-linejoin="round"/>
<path d="M23.3379 45.5785L21.885 43.7944" stroke="#14565B" stroke-width="2.06966" stroke-linecap="round" stroke-linejoin="round"/>
<path d="M26.5245 43.259L25.2806 41.6074" stroke="#14565B" stroke-width="2.06966" stroke-linecap="round" stroke-linejoin="round"/>
<path d="M29.7044 40.9415L28.3446 39.0933" stroke="#14565B" stroke-width="2.06966" stroke-linecap="round" stroke-linejoin="round"/>
</g>
<defs>
<clipPath id="clip0_715_285">
<rect width="49.6719" height="49.6719" fill="white"/>
</clipPath>
</defs>
</svg>
