<svg width="40" height="41" viewBox="0 0 40 41" fill="none" xmlns="http://www.w3.org/2000/svg">
<path d="M14.7775 36.6667C16.0703 37.8077 17.7684 38.5 19.6282 38.5C21.488 38.5 23.1862 37.8077 24.4789 36.6667M1.83369 8.83648C1.80739 6.17568 3.24194 3.69096 5.55941 2.38334M37.4155 8.83649C37.4418 6.17569 36.0072 3.69097 33.6898 2.38335M30.6282 12.8333C30.6282 9.91596 29.4693 7.11807 27.4064 5.05517C25.3435 2.99227 22.5456 1.83334 19.6282 1.83334C16.7108 1.83334 13.913 2.99227 11.8501 5.05517C9.78715 7.11807 8.62823 9.91596 8.62823 12.8333C8.62823 18.4987 7.19909 22.3776 5.60261 24.9433C4.25596 27.1074 3.58263 28.1895 3.60732 28.4914C3.63466 28.8256 3.70547 28.9531 3.97482 29.1529C4.21807 29.3333 5.31464 29.3333 7.50779 29.3333H31.7487C33.9418 29.3333 35.0384 29.3333 35.2816 29.1529C35.551 28.9531 35.6218 28.8256 35.6491 28.4914C35.6738 28.1895 35.0005 27.1074 33.6538 24.9433C32.0574 22.3776 30.6282 18.4987 30.6282 12.8333Z" stroke="#B56B45" stroke-width="3.66667" stroke-linecap="round" stroke-linejoin="round"/>
</svg>
