<svg width="31" height="25" viewBox="0 0 31 25" fill="none" xmlns="http://www.w3.org/2000/svg">
<path d="M3.08341 3.08329L12.4994 10.1939L12.5025 10.1965C13.548 10.9632 14.0711 11.3468 14.644 11.495C15.1504 11.6259 15.6827 11.6259 16.1891 11.495C16.7625 11.3466 17.2871 10.9619 18.3345 10.1939C18.3345 10.1939 24.374 5.55912 27.7501 3.08329M1.54175 18.1919V6.47526C1.54175 4.74843 1.54175 3.88437 1.87781 3.22481C2.17342 2.64465 2.64477 2.1733 3.22493 1.87769C3.8845 1.54163 4.74855 1.54163 6.47538 1.54163H24.3587C26.0855 1.54163 26.9478 1.54163 27.6073 1.87769C28.1875 2.1733 28.6604 2.64465 28.956 3.22481C29.2917 3.88373 29.2917 4.74674 29.2917 6.4702V18.1971C29.2917 19.9206 29.2917 20.7824 28.956 21.4413C28.6604 22.0214 28.1875 22.4936 27.6073 22.7892C26.9484 23.125 26.0866 23.125 24.3632 23.125H6.47032C4.74686 23.125 3.88385 23.125 3.22493 22.7892C2.64477 22.4936 2.17342 22.0214 1.87781 21.4413C1.54175 20.7817 1.54175 19.9188 1.54175 18.1919Z" stroke="#0C1E33" stroke-width="3.08333" stroke-linecap="round" stroke-linejoin="round"/>
</svg>
