<svg width="153" height="35" viewBox="0 0 153 35" fill="none" xmlns="http://www.w3.org/2000/svg">
<g clip-path="url(#clip0_372_49)">
<path d="M16.3002 6.37101C14.1547 6.37101 12.3648 6.90789 10.9352 7.98165C9.50328 9.05542 8.42933 10.4418 7.71575 12.1407C6.99978 13.8396 6.6418 15.7175 6.6418 17.7744V32.6425C6.6418 33.2104 6.18119 33.6709 5.61319 33.6709H1.02861C0.460606 33.6709 0 33.2104 0 32.6425V17.1039C0 13.885 0.625279 10.9906 1.87822 8.41832C3.12878 5.84844 4.96405 3.80351 7.37924 2.28115C9.79206 0.76118 12.7657 0 16.3002 0C19.8347 0 22.9516 0.76118 25.3882 2.28115C27.8249 3.80113 29.6817 5.84605 30.9561 8.41832C32.2305 10.9906 32.8677 13.8611 32.8677 17.0371V32.6425C32.8677 33.2104 32.4071 33.6709 31.8391 33.6709H27.2545C26.6865 33.6709 26.2259 33.2104 26.2259 32.6425V17.8412C26.2259 15.7843 25.856 13.8969 25.1185 12.1741C24.3811 10.4537 23.2833 9.05542 21.8323 7.98165C20.3788 6.90789 18.534 6.37101 16.2978 6.37101H16.3002Z" fill="#14565B"/>
<path d="M56.803 34.4711C53.6265 34.4711 50.8008 33.6884 48.3188 32.1231C45.8367 30.5578 43.8798 28.4676 42.4502 25.8524C41.0183 23.2371 40.3047 20.3427 40.3047 17.1668C40.3047 13.9908 41.0755 11.1656 42.6197 8.54803C44.1614 5.93282 46.252 3.85449 48.8915 2.31065C51.5287 0.769205 54.5023 -0.00390625 57.8125 -0.00390625C61.1227 -0.00390625 64.0939 0.745343 66.7335 2.24384C69.3706 3.74234 71.4612 5.78727 73.0053 8.381C74.5471 10.9747 75.3203 13.9025 75.3203 17.1668V32.6385C75.3203 33.2064 74.8597 33.667 74.2917 33.667H70.0412C69.4732 33.667 69.0126 33.2064 69.0126 32.6385V21.3926L71.2942 19.6484C71.2942 22.4211 70.6784 24.9241 69.4494 27.16C68.2179 29.3958 66.521 31.1735 64.3517 32.4906C62.1823 33.8101 59.6669 34.4687 56.8054 34.4687L56.803 34.4711ZM57.8101 28.1669C59.8673 28.1669 61.7217 27.6754 63.378 26.6923C65.0318 25.7092 66.3301 24.3777 67.268 22.7026C68.206 21.0276 68.6761 19.2046 68.6761 17.236C68.6761 15.2674 68.206 13.3919 67.268 11.7359C66.3277 10.0823 65.0318 8.75086 63.378 7.74629C61.7241 6.73934 59.8673 6.23825 57.8101 6.23825C55.7529 6.23825 53.9081 6.74172 52.2757 7.74629C50.6433 8.75324 49.3474 10.0823 48.3856 11.7359C47.4238 13.3895 46.9441 15.2245 46.9441 17.236C46.9441 19.2475 47.4238 21.0252 48.3856 22.7026C49.3474 24.3801 50.6433 25.7092 52.2757 26.6923C53.9081 27.6754 55.7529 28.1669 57.8101 28.1669Z" fill="#14565B"/>
<path d="M90.6816 29.374L80.596 2.18865C80.3478 1.51814 80.8442 0.804688 81.5601 0.804688H86.4717C86.9037 0.804688 87.2903 1.07671 87.4382 1.48235L96.8532 27.5629C96.8532 27.7419 96.932 27.8874 97.0871 27.9996C97.2422 28.1117 97.4117 28.1666 97.5907 28.1666C97.815 28.1666 97.994 28.1117 98.1276 27.9996C98.2613 27.8874 98.352 27.7419 98.3949 27.5629L107.81 1.48474C107.958 1.07671 108.345 0.807074 108.776 0.807074H113.619C114.335 0.807074 114.831 1.52292 114.581 2.19342L104.433 29.3764C103.805 31.0753 102.913 32.3614 101.75 33.2324C100.586 34.1033 99.2016 34.54 97.5907 34.54C95.9797 34.54 94.6385 34.1033 93.4309 33.2324C92.2233 32.3614 91.3069 31.0753 90.6816 29.3764V29.374Z" fill="#14565B"/>
<path d="M134.498 34.4711C131.322 34.4711 128.496 33.6884 126.014 32.1231C123.532 30.5578 121.575 28.4676 120.146 25.8524C118.714 23.2371 118 20.3427 118 17.1668C118 13.9908 118.771 11.1656 120.315 8.54803C121.857 5.93282 123.947 3.85449 126.587 2.31065C129.224 0.769205 132.198 -0.00390625 135.508 -0.00390625C138.818 -0.00390625 141.789 0.745343 144.429 2.24384C147.066 3.74234 149.157 5.78727 150.701 8.381C152.242 10.9747 153.016 13.9025 153.016 17.1668V32.6385C153.016 33.2065 152.555 33.667 151.987 33.667H147.737C147.169 33.667 146.708 33.2065 146.708 32.6385V21.3926L148.989 19.6484C148.989 22.4211 148.374 24.9241 147.145 27.16C145.913 29.3958 144.216 31.1735 142.047 32.4906C139.878 33.8101 137.362 34.4687 134.501 34.4687L134.498 34.4711ZM135.505 28.1669C137.563 28.1669 139.417 27.6754 141.073 26.6923C142.727 25.7092 144.025 24.3777 144.963 22.7026C145.901 21.0276 146.371 19.2046 146.371 17.236C146.371 15.2674 145.901 13.3919 144.963 11.7359C144.023 10.0823 142.727 8.75086 141.073 7.74629C139.419 6.73934 137.563 6.23825 135.505 6.23825C133.448 6.23825 131.603 6.74172 129.971 7.74629C128.339 8.75324 127.043 10.0823 126.081 11.7359C125.119 13.3895 124.639 15.2245 124.639 17.236C124.639 19.2475 125.119 21.0252 126.081 22.7026C127.043 24.3801 128.339 25.7092 129.971 26.6923C131.603 27.6754 133.448 28.1669 135.505 28.1669Z" fill="#14565B"/>
</g>
<defs>
<clipPath id="clip0_372_49">
<rect width="153" height="34.5394" fill="white"/>
</clipPath>
</defs>
</svg>
