<svg width="196" height="45" viewBox="0 0 196 45" fill="none" xmlns="http://www.w3.org/2000/svg">
<g clip-path="url(#clip0_856_2593)">
<path d="M20.8813 8.16155C18.1328 8.16155 15.8398 8.84932 14.0085 10.2249C12.1741 11.6004 10.7984 13.3764 9.88423 15.5528C8.96704 17.7292 8.50845 20.1349 8.50845 22.7698V41.8165C8.50845 42.544 7.91839 43.1339 7.19075 43.1339H1.31769C0.590057 43.1339 0 42.544 0 41.8165V21.9109C0 17.7873 0.801011 14.0794 2.40609 10.7842C4.00811 7.49212 6.35917 4.87248 9.45315 2.92226C12.5441 0.975107 16.3535 0 20.8813 0C25.4092 0 29.402 0.975107 32.5235 2.92226C35.645 4.86942 38.0236 7.48906 39.6562 10.7842C41.2887 14.0794 42.105 17.7567 42.105 21.8253V41.8165C42.105 42.544 41.515 43.1339 40.7873 43.1339H34.9143C34.1866 43.1339 33.5966 42.544 33.5966 41.8165V22.8554C33.5966 20.2205 33.1227 17.8026 32.178 15.5956C31.2333 13.3917 29.827 11.6004 27.9681 10.2249C26.1062 8.84932 23.7429 8.16155 20.8783 8.16155H20.8813Z" fill="#14565B"/>
<path d="M72.7669 44.1602C68.6976 44.1602 65.0778 43.1575 61.8982 41.1523C58.7186 39.1471 56.2117 36.4694 54.3803 33.1191C52.546 29.7689 51.6318 26.0611 51.6318 21.9925C51.6318 17.924 52.6193 14.3048 54.5974 10.9515C56.5724 7.60131 59.2506 4.93888 62.632 2.96115C66.0103 0.986484 69.8197 -0.00390625 74.0601 -0.00390625C78.3006 -0.00390625 82.1069 0.955916 85.4883 2.87556C88.8666 4.79521 91.5448 7.41485 93.5229 10.7375C95.4979 14.0602 96.4884 17.8109 96.4884 21.9925V41.8126C96.4884 42.5401 95.8984 43.13 95.1707 43.13H89.7257C88.9981 43.13 88.408 42.5401 88.408 41.8126V27.4061L91.3308 25.1716C91.3308 28.7235 90.542 31.9301 88.9675 34.7943C87.3899 37.6584 85.2162 39.9357 82.4371 41.6231C79.658 43.3134 76.4356 44.1571 72.77 44.1571L72.7669 44.1602ZM74.0571 36.0842C76.6925 36.0842 79.068 35.4545 81.1897 34.1951C83.3084 32.9357 84.9716 31.2301 86.1731 29.0842C87.3746 26.9384 87.9769 24.603 87.9769 22.0812C87.9769 19.5594 87.3746 17.1567 86.1731 15.0354C84.9686 12.917 83.3084 11.2113 81.1897 9.92445C79.071 8.6345 76.6925 7.99258 74.0571 7.99258C71.4217 7.99258 69.0584 8.63755 66.9672 9.92445C64.876 11.2144 63.2159 12.917 61.9838 15.0354C60.7517 17.1537 60.1372 19.5043 60.1372 22.0812C60.1372 24.658 60.7517 26.9353 61.9838 29.0842C63.2159 31.2331 64.876 32.9357 66.9672 34.1951C69.0584 35.4545 71.4217 36.0842 74.0571 36.0842Z" fill="#14565B"/>
<path d="M116.167 37.6298L103.247 2.80417C102.929 1.94522 103.565 1.03125 104.482 1.03125H110.774C111.327 1.03125 111.823 1.37972 112.012 1.89937L124.073 35.3097C124.073 35.539 124.174 35.7255 124.373 35.8691C124.572 36.0128 124.789 36.0831 125.018 36.0831C125.305 36.0831 125.535 36.0128 125.706 35.8691C125.877 35.7255 125.993 35.539 126.048 35.3097L138.109 1.90243C138.299 1.37972 138.794 1.03431 139.347 1.03431H145.551C146.468 1.03431 147.104 1.95133 146.783 2.81028L133.783 37.6329C132.979 39.8093 131.836 41.4569 130.347 42.5726C128.855 43.6883 127.082 44.2477 125.018 44.2477C122.954 44.2477 121.236 43.6883 119.689 42.5726C118.142 41.4569 116.968 39.8093 116.167 37.6329V37.6298Z" fill="#14565B"/>
<path d="M172.298 44.1602C168.229 44.1602 164.609 43.1575 161.429 41.1523C158.25 39.1471 155.743 36.4693 153.912 33.1191C152.077 29.7689 151.163 26.0611 151.163 21.9925C151.163 17.924 152.151 14.3048 154.129 10.9515C156.104 7.60131 158.782 4.93887 162.163 2.96115C165.542 0.986484 169.351 -0.00390625 173.591 -0.00390625C177.832 -0.00390625 181.638 0.955916 185.02 2.87556C188.398 4.79521 191.076 7.41485 193.054 10.7375C195.029 14.0602 196.02 17.8109 196.02 21.9925V41.8126C196.02 42.5401 195.43 43.13 194.702 43.13H189.257C188.529 43.13 187.939 42.5401 187.939 41.8126V27.4061L190.862 25.1716C190.862 28.7235 190.073 31.9301 188.499 34.7942C186.921 37.6584 184.747 39.9357 181.968 41.6231C179.189 43.3134 175.967 44.1571 172.301 44.1571L172.298 44.1602ZM173.588 36.0842C176.224 36.0842 178.599 35.4545 180.721 34.1951C182.84 32.9357 184.503 31.2301 185.704 29.0842C186.906 26.9384 187.508 24.603 187.508 22.0812C187.508 19.5594 186.906 17.1567 185.704 15.0354C184.5 12.917 182.84 11.2113 180.721 9.92445C178.602 8.6345 176.224 7.99258 173.588 7.99258C170.953 7.99258 168.59 8.63755 166.498 9.92445C164.407 11.2144 162.747 12.917 161.515 15.0354C160.283 17.1537 159.668 19.5043 159.668 22.0812C159.668 24.658 160.283 26.9353 161.515 29.0842C162.747 31.2331 164.407 32.9357 166.498 34.1951C168.59 35.4545 170.953 36.0842 173.588 36.0842Z" fill="#14565B"/>
</g>
<defs>
<clipPath id="clip0_856_2593">
<rect width="196" height="44.2466" fill="white"/>
</clipPath>
</defs>
</svg>
