<svg width="111" height="111" viewBox="0 0 111 111" fill="none" xmlns="http://www.w3.org/2000/svg">
<g clip-path="url(#clip0_769_150)">
<path d="M111 55.5C111 56.7266 110.513 57.903 109.645 58.7704C108.778 59.6377 107.602 60.125 106.375 60.125C105.148 60.125 103.972 59.6377 103.105 58.7704C102.237 57.903 101.75 56.7266 101.75 55.5C101.737 43.2379 96.8595 31.4818 88.1888 22.8112C79.5182 14.1405 67.7621 9.26347 55.5 9.25C54.2734 9.25 53.097 8.76272 52.2296 7.89537C51.3623 7.02801 50.875 5.85163 50.875 4.625C50.875 3.39837 51.3623 2.22199 52.2296 1.35463C53.097 0.487275 54.2734 0 55.5 0C70.2146 0.015915 84.322 5.86833 94.7269 16.2732C105.132 26.678 110.984 40.7854 111 55.5ZM74 60.125C75.2266 60.125 76.403 59.6377 77.2704 58.7704C78.1377 57.903 78.625 56.7266 78.625 55.5C78.625 54.2734 78.1377 53.097 77.2704 52.2296C76.403 51.3623 75.2266 50.875 74 50.875H63.4689C62.6628 49.4895 61.5105 48.3372 60.125 47.5311V32.375C60.125 31.1484 59.6377 29.972 58.7704 29.1046C57.903 28.2373 56.7266 27.75 55.5 27.75C54.2734 27.75 53.097 28.2373 52.2296 29.1046C51.3623 29.972 50.875 31.1484 50.875 32.375V47.5311C49.6483 48.2374 48.6007 49.2166 47.8133 50.3929C47.0258 51.5691 46.5197 52.9109 46.3341 54.3141C46.1486 55.7174 46.2885 57.1446 46.7431 58.4851C47.1977 59.8256 47.9548 61.0434 48.9557 62.0443C49.9566 63.0452 51.1744 63.8023 52.5149 64.2569C53.8554 64.7115 55.2826 64.8514 56.6859 64.6659C58.0891 64.4803 59.4309 63.9742 60.6071 63.1867C61.7834 62.3993 62.7626 61.3517 63.4689 60.125H74ZM8.44988 31.376C7.53514 31.376 6.64094 31.6473 5.88036 32.1555C5.11979 32.6637 4.52699 33.386 4.17693 34.2311C3.82688 35.0762 3.73529 36.0061 3.91375 36.9033C4.0922 37.8005 4.53269 38.6246 5.17951 39.2714C5.82633 39.9182 6.65042 40.3587 7.54758 40.5371C8.44475 40.7156 9.37468 40.624 10.2198 40.2739C11.0649 39.9239 11.7872 39.3311 12.2954 38.5705C12.8036 37.8099 13.0749 36.9157 13.0749 36.001C13.0749 34.7744 12.5876 33.598 11.7202 32.7306C10.8529 31.8633 9.6765 31.376 8.44988 31.376ZM9.25 55.5C9.25 54.5853 8.97875 53.6911 8.47055 52.9305C7.96235 52.1699 7.24002 51.5771 6.39491 51.2271C5.5498 50.877 4.61987 50.7854 3.72271 50.9639C2.82555 51.1423 2.00145 51.5828 1.35463 52.2296C0.707815 52.8764 0.267327 53.7005 0.0888702 54.5977C-0.0895865 55.4949 0.00200392 56.4248 0.352059 57.2699C0.702115 58.115 1.29491 58.8373 2.05549 59.3455C2.81607 59.8537 3.71026 60.125 4.625 60.125C5.85163 60.125 7.02802 59.6377 7.89537 58.7704C8.76273 57.903 9.25 56.7266 9.25 55.5ZM55.5 101.75C54.5853 101.75 53.6911 102.021 52.9305 102.529C52.1699 103.038 51.5771 103.76 51.2271 104.605C50.877 105.45 50.7854 106.38 50.9639 107.277C51.1423 108.174 51.5828 108.999 52.2296 109.645C52.8764 110.292 53.7005 110.733 54.5977 110.911C55.4949 111.09 56.4248 110.998 57.2699 110.648C58.115 110.298 58.8373 109.705 59.3455 108.945C59.8537 108.184 60.125 107.29 60.125 106.375C60.125 105.148 59.6377 103.972 58.7704 103.105C57.903 102.237 56.7266 101.75 55.5 101.75ZM19.5221 14.8324C18.6074 14.8324 17.7132 15.1036 16.9526 15.6118C16.192 16.12 15.5992 16.8424 15.2492 17.6875C14.8991 18.5326 14.8075 19.4625 14.986 20.3597C15.1645 21.2568 15.6049 22.0809 16.2518 22.7277C16.8986 23.3746 17.7227 23.8151 18.6198 23.9935C19.517 24.172 20.4469 24.0804 21.292 23.7303C22.1371 23.3803 22.8595 22.7875 23.3677 22.0269C23.8759 21.2663 24.1471 20.3721 24.1471 19.4574C24.1471 18.2307 23.6599 17.0544 22.7925 16.187C21.9251 15.3197 20.7488 14.8324 19.5221 14.8324ZM35.9779 3.88963C35.0631 3.88963 34.1689 4.16088 33.4084 4.66908C32.6478 5.17728 32.055 5.89961 31.7049 6.74471C31.3549 7.58982 31.2633 8.51976 31.4417 9.41692C31.6202 10.3141 32.0607 11.1382 32.7075 11.785C33.3543 12.4318 34.1784 12.8723 35.0756 13.0508C35.9727 13.2292 36.9027 13.1376 37.7478 12.7876C38.5929 12.4375 39.3152 11.8447 39.8234 11.0841C40.3316 10.3236 40.6029 9.42936 40.6029 8.51462C40.6029 7.288 40.1156 6.11161 39.2482 5.24426C38.3809 4.3769 37.2045 3.88963 35.9779 3.88963ZM8.44988 70.374C7.53514 70.374 6.64094 70.6452 5.88036 71.1535C5.11979 71.6617 4.52699 72.384 4.17693 73.2291C3.82688 74.0742 3.73529 75.0041 3.91375 75.9013C4.0922 76.7985 4.53269 77.6226 5.17951 78.2694C5.82633 78.9162 6.65042 79.3567 7.54758 79.5351C8.44475 79.7136 9.37468 79.622 10.2198 79.2719C11.0649 78.9219 11.7872 78.3291 12.2954 77.5685C12.8036 76.8079 13.0749 75.9137 13.0749 74.999C13.0749 73.7724 12.5876 72.596 11.7202 71.7286C10.8529 70.8613 9.6765 70.374 8.44988 70.374ZM19.5221 86.9176C18.6074 86.9176 17.7132 87.1889 16.9526 87.6971C16.192 88.2053 15.5992 88.9276 15.2492 89.7727C14.8991 90.6178 14.8075 91.5478 14.986 92.4449C15.1645 93.3421 15.6049 94.1662 16.2518 94.813C16.8986 95.4598 17.7227 95.9003 18.6198 96.0788C19.517 96.2572 20.4469 96.1656 21.292 95.8156C22.1371 95.4655 22.8595 94.8727 23.3677 94.1121C23.8759 93.3516 24.1471 92.4574 24.1471 91.5426C24.1471 90.316 23.6599 89.1396 22.7925 88.2723C21.9251 87.4049 20.7488 86.9176 19.5221 86.9176ZM35.9779 97.8604C35.0631 97.8604 34.1689 98.1316 33.4084 98.6398C32.6478 99.148 32.055 99.8704 31.7049 100.715C31.3549 101.561 31.2633 102.491 31.4417 103.388C31.6202 104.285 32.0607 105.109 32.7075 105.756C33.3543 106.403 34.1784 106.843 35.0756 107.022C35.9727 107.2 36.9027 107.108 37.7478 106.758C38.5929 106.408 39.3152 105.815 39.8234 105.055C40.3316 104.294 40.6029 103.4 40.6029 102.485C40.6029 101.259 40.1156 100.082 39.2482 99.215C38.3809 98.3476 37.2045 97.8604 35.9779 97.8604ZM102.55 70.374C101.635 70.374 100.741 70.6452 99.9806 71.1535C99.22 71.6617 98.6272 72.384 98.2772 73.2291C97.9271 74.0742 97.8355 75.0041 98.014 75.9013C98.1925 76.7985 98.6329 77.6226 99.2798 78.2694C99.9266 78.9162 100.751 79.3567 101.648 79.5351C102.545 79.7136 103.475 79.622 104.32 79.2719C105.165 78.9219 105.887 78.3291 106.396 77.5685C106.904 76.8079 107.175 75.9137 107.175 74.999C107.175 73.7724 106.688 72.596 105.82 71.7286C104.953 70.8613 103.777 70.374 102.55 70.374ZM91.4779 86.9176C90.5631 86.9176 89.6689 87.1889 88.9084 87.6971C88.1478 88.2053 87.555 88.9276 87.2049 89.7727C86.8549 90.6178 86.7633 91.5478 86.9417 92.4449C87.1202 93.3421 87.5607 94.1662 88.2075 94.813C88.8543 95.4598 89.6784 95.9003 90.5756 96.0788C91.4727 96.2572 92.4027 96.1656 93.2478 95.8156C94.0929 95.4655 94.8152 94.8727 95.3234 94.1121C95.8316 93.3516 96.1029 92.4574 96.1029 91.5426C96.1029 90.316 95.6156 89.1396 94.7482 88.2723C93.8809 87.4049 92.7045 86.9176 91.4779 86.9176ZM75.0221 97.8604C74.1074 97.8604 73.2132 98.1316 72.4526 98.6398C71.692 99.148 71.0992 99.8704 70.7492 100.715C70.3991 101.561 70.3075 102.491 70.486 103.388C70.6645 104.285 71.1049 105.109 71.7518 105.756C72.3986 106.403 73.2227 106.843 74.1198 107.022C75.017 107.2 75.9469 107.108 76.792 106.758C77.6371 106.408 78.3595 105.815 78.8677 105.055C79.3759 104.294 79.6471 103.4 79.6471 102.485C79.6471 101.259 79.1599 100.082 78.2925 99.215C77.4251 98.3476 76.2488 97.8604 75.0221 97.8604Z" fill="#14565B"/>
</g>
<defs>
<clipPath id="clip0_769_150">
<rect width="111" height="111" fill="white"/>
</clipPath>
</defs>
</svg>
